<?xml version="1.0" encoding="utf-8"?>
<!-- Generator: Adobe Illustrator 23.0.1, SVG Export Plug-In . SVG Version: 6.00 Build 0)  -->
<svg version="1.1" id="Layer_1" xmlns="http://www.w3.org/2000/svg" xmlns:xlink="http://www.w3.org/1999/xlink" x="0px" y="0px"
	 viewBox="0 0 21 17" style="enable-background:new 0 0 21 17;" xml:space="preserve">
<style type="text/css">
	.st0{fill:#5CB558;}
</style>
<title>iconmonstr-twitter-1</title>
<desc>Created with Sketch.</desc>
<g id="Symbols">
	<g id="Footer" transform="translate(-662.000000, -179.000000)">
		<g id="Group-3">
			<g transform="translate(628.000000, 177.000000)">
				<g id="iconmonstr-twitter-1" transform="translate(34.857143, 2.500000)">
					<path id="Shape" class="st0" d="M19.9,2.1c-0.7,0.3-1.5,0.5-2.3,0.6c0.8-0.5,1.5-1.3,1.8-2.3c-0.8,0.5-1.7,0.8-2.6,1
						c-0.7-0.8-1.8-1.3-3-1.3c-2.6,0-4.6,2.5-4,5C6.4,5.1,3.4,3.4,1.4,1C0.3,2.8,0.8,5.2,2.6,6.4C2,6.4,1.3,6.2,0.8,5.9
						c0,1.9,1.3,3.7,3.3,4.1c-0.6,0.2-1.2,0.2-1.8,0.1c0.5,1.6,2,2.8,3.8,2.8c-1.7,1.4-3.9,2-6,1.7c1.8,1.2,4,1.8,6.3,1.8
						c7.6,0,11.9-6.4,11.6-12.2C18.6,3.7,19.3,3,19.9,2.1L19.9,2.1z"/>
				</g>
			</g>
		</g>
	</g>
</g>
</svg>
