<?xml version="1.0" encoding="utf-8"?>
<!-- Generator: Adobe Illustrator 23.0.1, SVG Export Plug-In . SVG Version: 6.00 Build 0)  -->
<svg version="1.1" id="Layer_1" xmlns="http://www.w3.org/2000/svg" xmlns:xlink="http://www.w3.org/1999/xlink" x="0px" y="0px"
	 viewBox="0 0 21 18" style="enable-background:new 0 0 21 18;" xml:space="preserve">
<style type="text/css">
	.st0{fill:#5CB558;}
</style>
<title>iconmonstr-vimeo-1</title>
<desc>Created with Sketch.</desc>
<g id="Symbols">
	<g id="Footer" transform="translate(-749.000000, -178.000000)">
		<g id="Group-3">
			<g transform="translate(628.000000, 177.000000)">
				<g id="iconmonstr-vimeo-1" transform="translate(121.142857, 0.833333)">
					<path id="Shape" class="st0" d="M19,7.6c-2,4.3-6.9,10.3-10,10.3c-3,0-3.5-6.5-5.1-10.9C3,4.8,2.5,5.3,0.9,6.4L0,5.2
						c2.2-2,4.5-4.3,5.8-4.4C7.4,0.6,8.3,1.7,8.7,4c0.5,3,1.1,7.6,2.3,7.6c0.9,0,3.1-3.7,3.2-5c0.2-1.9-1.4-2-2.8-1.4
						C13.6-2.1,22.8-0.7,19,7.6z"/>
				</g>
			</g>
		</g>
	</g>
</g>
</svg>
