<?xml version="1.0" encoding="utf-8"?>
<!-- Generator: Adobe Illustrator 23.0.1, SVG Export Plug-In . SVG Version: 6.00 Build 0)  -->
<svg version="1.1" id="Layer_1" xmlns="http://www.w3.org/2000/svg" xmlns:xlink="http://www.w3.org/1999/xlink" x="0px" y="0px"
	 viewBox="0 0 20 20" style="enable-background:new 0 0 20 20;" xml:space="preserve">
<style type="text/css">
	.st0{fill:#5CB558;}
</style>
<title>iconmonstr-instagram-11</title>
<desc>Created with Sketch.</desc>
<g id="Symbols">
	<g id="Footer" transform="translate(-706.000000, -177.000000)">
		<g id="Group-3">
			<g transform="translate(628.000000, 177.000000)">
				<g id="iconmonstr-instagram-11" transform="translate(78.000000, 0.000000)">
					<path id="Shape" class="st0" d="M9.9,1.8c2.7,0,3,0,4,0.1C16.7,2,17.9,3.3,18,6c0,1.1,0.1,1.4,0.1,4c0,2.7,0,3-0.1,4
						c-0.1,2.7-1.4,4-4.1,4.1c-1,0-1.4,0.1-4,0.1c-2.7,0-3,0-4-0.1C3.2,18,2,16.7,1.8,14c0-1.1-0.1-1.4-0.1-4c0-2.7,0-3,0.1-4
						C2,3.3,3.2,2,5.9,1.9C7,1.8,7.3,1.8,9.9,1.8L9.9,1.8z M9.9,0c-2.7,0-3,0-4.1,0.1C2.2,0.2,0.2,2.2,0.1,5.9C0,6.9,0,7.3,0,10
						s0,3.1,0.1,4.1c0.2,3.6,2.2,5.6,5.8,5.8C6.9,20,7.2,20,9.9,20s3,0,4.1-0.1c3.6-0.2,5.6-2.2,5.8-5.8c0-1.1,0.1-1.4,0.1-4.1
						s0-3.1-0.1-4.1c-0.2-3.6-2.2-5.7-5.8-5.8C13,0,12.6,0,9.9,0L9.9,0z M9.9,4.9c-2.8,0-5.1,2.3-5.1,5.1s2.3,5.1,5.1,5.1
						S15,12.8,15,10C15,7.2,12.8,4.9,9.9,4.9z M9.9,13.3c-1.8,0-3.3-1.5-3.3-3.3c0-1.8,1.5-3.3,3.3-3.3s3.3,1.5,3.3,3.3
						C13.3,11.8,11.8,13.3,9.9,13.3z M15.3,3.5c-0.7,0-1.2,0.5-1.2,1.2s0.5,1.2,1.2,1.2c0.7,0,1.2-0.5,1.2-1.2S15.9,3.5,15.3,3.5z"
						/>
				</g>
			</g>
		</g>
	</g>
</g>
</svg>
